<?xml version="1.0" encoding="utf-8"?>
<!-- Generator: Adobe Illustrator 16.0.0, SVG Export Plug-In . SVG Version: 6.00 Build 0)  -->
<!DOCTYPE svg PUBLIC "-//W3C//DTD SVG 1.1//EN" "http://www.w3.org/Graphics/SVG/1.1/DTD/svg11.dtd">
<svg version="1.1" id="Ebene_1" xmlns="http://www.w3.org/2000/svg" xmlns:xlink="http://www.w3.org/1999/xlink" x="0px" y="0px"
	 width="113.386px" height="85.04px" viewBox="0 0 113.386 85.04" enable-background="new 0 0 113.386 85.04" xml:space="preserve">
<g>
	<defs>
		<rect id="SVGID_1_" width="113.386" height="85.04"/>
	</defs>
	<clipPath id="SVGID_2_">
		<use xlink:href="#SVGID_1_"  overflow="visible"/>
	</clipPath>
	<path clip-path="url(#SVGID_2_)" fill="#AB3911" d="M109.327,41.064c0-20.772-21.278-37.61-47.525-37.61
		c-26.248,0-47.525,16.838-47.525,37.61c0,6.698,2.222,12.981,6.1,18.429L4.153,81.682l27.319-11.664
		c8.23,5.404,18.799,8.656,30.33,8.656C88.049,78.674,109.327,61.834,109.327,41.064"/>
</g>
<g>
	<defs>
		<rect id="SVGID_3_" y="0" width="113.386" height="85.039"/>
	</defs>
	<clipPath id="SVGID_4_">
		<use xlink:href="#SVGID_3_"  overflow="visible"/>
	</clipPath>
	<path clip-path="url(#SVGID_4_)" fill="#FFFFFF" d="M68.942,28.365l-14.589-0.002l0.002-13.946l14.588,0.001L68.942,28.365z
		 M80.932,17.89c-1.037-0.001-1.929,0.63-2.313,1.528l-7.703-0.001l0.001-6.97l-18.532-0.002l-0.001,6.97h-8.262
		c-0.384-0.898-1.276-1.529-2.313-1.53c-1.386,0-2.514,1.128-2.514,2.515c-0.001,1.387,1.128,2.515,2.514,2.515
		c1.037,0,1.928-0.631,2.313-1.529l8.262,0.001l-0.001,8.948h4.981l2.152,3.004l4.263,0.001l2.152-3.004l4.983,0.001l0.001-8.948
		l7.703,0.001c0.385,0.898,1.276,1.529,2.312,1.529c1.388,0,2.516-1.128,2.516-2.515C83.447,19.018,82.318,17.89,80.932,17.89
		 M60.673,69.875l-10.257-6.298l0.001-13.053l10.257,6.297L60.673,69.875z M58.926,43.508c1.255-1.76,2.178-3.47,2.772-4.703
		c0.587,1.233,1.473,2.936,2.599,4.64c1.571,2.38,5.346,4.474,7.456,5.51l-9.586,6.092l-0.486,0.298l-10.23-6.39
		C53.531,47.949,57.199,45.93,58.926,43.508 M74.176,48.204c-0.005-0.002-0.01-0.003-0.016-0.007
		c-0.072-0.067-0.152-0.128-0.249-0.168c-0.062-0.025-6.254-2.666-8.157-5.547c-1.991-3.016-3.234-6.13-3.247-6.161
		c-0.131-0.333-0.454-0.552-0.812-0.552h-0.009c-0.361,0.003-0.682,0.229-0.809,0.567c-0.013,0.03-1.152,3.041-3.374,6.158
		c-2.14,3.002-8.169,5.507-8.23,5.532c-0.224,0.093-0.395,0.272-0.481,0.492c-0.079,0.132-0.123,0.286-0.123,0.446l-0.002,15.102
		c0,0.305,0.158,0.586,0.417,0.745l12.005,7.371c0.141,0.087,0.299,0.13,0.458,0.13c0.031,0,0.063-0.009,0.096-0.012
		c0.032,0.003,0.063,0.012,0.096,0.012c0.159,0,0.317-0.043,0.458-0.13l12.009-7.368c0.259-0.159,0.417-0.44,0.417-0.745
		l0.001-15.103C74.624,48.649,74.451,48.358,74.176,48.204"/>
</g>
</svg>
