<?xml version="1.0" encoding="utf-8"?>
<!-- Generator: Adobe Illustrator 16.0.0, SVG Export Plug-In . SVG Version: 6.00 Build 0)  -->
<!DOCTYPE svg PUBLIC "-//W3C//DTD SVG 1.1//EN" "http://www.w3.org/Graphics/SVG/1.1/DTD/svg11.dtd">
<svg version="1.1" id="Ebene_1" xmlns="http://www.w3.org/2000/svg" xmlns:xlink="http://www.w3.org/1999/xlink" x="0px" y="0px"
	 width="113.386px" height="85.04px" viewBox="0 0 113.386 85.04" enable-background="new 0 0 113.386 85.04" xml:space="preserve">
<g>
	<defs>
		<rect id="SVGID_1_" width="113.386" height="85.04"/>
	</defs>
	<clipPath id="SVGID_2_">
		<use xlink:href="#SVGID_1_"  overflow="visible"/>
	</clipPath>
	<path clip-path="url(#SVGID_2_)" fill="#AB3911" d="M109.327,41.064c0-20.772-21.278-37.61-47.525-37.61
		c-26.248,0-47.525,16.838-47.525,37.61c0,6.698,2.222,12.981,6.1,18.429L4.153,81.682l27.319-11.664
		c8.23,5.404,18.799,8.656,30.33,8.656C88.049,78.674,109.327,61.834,109.327,41.064"/>
</g>
<g>
	<defs>
		<rect id="SVGID_3_" y="0" width="113.386" height="85.039"/>
	</defs>
	<clipPath id="SVGID_4_">
		<use xlink:href="#SVGID_3_"  overflow="visible"/>
	</clipPath>
	<path clip-path="url(#SVGID_4_)" fill="#FFFFFF" d="M86.025,50.711c0.537,0,0.972-0.434,0.972-0.97s-0.435-0.971-0.972-0.971
		H75.893v-4.106c0.986,0.39,2.793-0.522,4.289-2.242c1.659-1.908,2.294-4.072,1.417-4.834c-0.875-0.762-2.931,0.168-4.59,2.076
		c-0.455,0.524-0.825,1.065-1.116,1.593v-3.602c0.986,0.391,2.793-0.521,4.289-2.241c1.659-1.908,2.294-4.073,1.417-4.834
		c-0.875-0.762-2.931,0.168-4.59,2.076c-0.455,0.524-0.825,1.065-1.116,1.593v-3.602c0.986,0.391,2.793-0.521,4.289-2.241
		c1.659-1.908,2.294-4.073,1.417-4.835c-0.875-0.761-2.931,0.168-4.59,2.077c-0.455,0.523-0.825,1.065-1.116,1.593v-0.895V14.114
		c0-0.536-0.434-0.97-0.97-0.97c-0.537,0-0.971,0.434-0.971,0.97v12.232v1.06c-0.302-0.58-0.696-1.18-1.199-1.758
		c-1.658-1.909-3.715-2.838-4.59-2.077c-0.878,0.762-0.243,2.927,1.417,4.835c1.54,1.772,3.41,2.681,4.372,2.195v3.813
		c-0.302-0.58-0.696-1.179-1.199-1.758c-1.658-1.908-3.715-2.838-4.59-2.076c-0.878,0.761-0.243,2.926,1.417,4.834
		c1.54,1.772,3.41,2.682,4.372,2.195v3.813c-0.302-0.58-0.696-1.179-1.199-1.758c-1.658-1.908-3.715-2.838-4.59-2.076
		c-0.878,0.762-0.243,2.926,1.417,4.834c1.54,1.772,3.41,2.682,4.372,2.196v4.152H49.088v-4.106c0.986,0.39,2.794-0.522,4.289-2.242
		c1.659-1.908,2.294-4.072,1.418-4.834s-2.932,0.168-4.591,2.076c-0.455,0.524-0.825,1.066-1.116,1.594v-3.603
		c0.986,0.391,2.794-0.521,4.289-2.241c1.659-1.908,2.294-4.073,1.418-4.834c-0.876-0.762-2.932,0.168-4.591,2.076
		c-0.455,0.524-0.825,1.065-1.116,1.594v-3.603c0.986,0.391,2.794-0.521,4.289-2.241c1.659-1.908,2.294-4.073,1.418-4.835
		c-0.876-0.761-2.932,0.168-4.591,2.077c-0.455,0.524-0.825,1.065-1.116,1.594v-0.896V14.114c0-0.536-0.434-0.97-0.97-0.97
		c-0.536,0-0.971,0.434-0.971,0.97v12.232v1.058c-0.3-0.579-0.696-1.178-1.199-1.756c-1.658-1.909-3.714-2.838-4.591-2.077
		c-0.876,0.762-0.241,2.927,1.418,4.835c1.541,1.772,3.409,2.681,4.372,2.195v3.812c-0.3-0.58-0.696-1.178-1.199-1.757
		c-1.658-1.908-3.714-2.838-4.591-2.076c-0.876,0.761-0.241,2.926,1.418,4.834c1.541,1.772,3.409,2.681,4.372,2.195v3.812
		c-0.3-0.58-0.696-1.178-1.199-1.757c-1.658-1.908-3.714-2.838-4.591-2.076c-0.876,0.762-0.241,2.926,1.418,4.834
		c1.541,1.772,3.409,2.682,4.372,2.196v4.152H36.998c-0.536,0-0.971,0.435-0.971,0.971s0.435,0.97,0.971,0.97h10.149v4.075h-5.348
		l-2.339,4.747c-0.111-0.015-0.221-0.034-0.337-0.034c-1.487,0-2.696,1.21-2.696,2.697c0,1.484,1.209,2.694,2.696,2.694
		c1.486,0,2.695-1.21,2.695-2.694c0-0.666-0.251-1.267-0.651-1.737l1.839-3.733h4.141v6.694c-1.027,0.381-1.764,1.362-1.764,2.519
		c0,1.486,1.209,2.696,2.696,2.696c1.486,0,2.695-1.21,2.695-2.696c0-1.129-0.699-2.095-1.686-2.494v-6.719h3.829l2.056,3.753
		c-0.39,0.469-0.634,1.062-0.634,1.718c0,1.484,1.209,2.694,2.696,2.694c1.485,0,2.694-1.21,2.694-2.694
		c0-1.487-1.209-2.697-2.694-2.697c-0.125,0-0.245,0.021-0.366,0.037l-2.602-4.75h-4.979v-4.075h24.864v4.075h-5.796l-2.329,4.729
		c-1.41,0.087-2.533,1.25-2.533,2.682c0,1.484,1.209,2.694,2.696,2.694c1.486,0,2.695-1.21,2.695-2.694
		c0-0.84-0.392-1.58-0.994-2.074l1.672-3.396h4.589v6.713c-0.995,0.396-1.702,1.365-1.702,2.5c0,1.486,1.209,2.696,2.695,2.696
		s2.695-1.21,2.695-2.696c0-1.151-0.729-2.13-1.748-2.514v-6.699h4.475l1.715,3.493c-0.536,0.493-0.877,1.193-0.877,1.978
		c0,1.484,1.21,2.694,2.696,2.694c1.487,0,2.696-1.21,2.696-2.694c0-1.487-1.209-2.697-2.696-2.697
		c-0.004,0-0.008,0.001-0.012,0.001l-2.312-4.714h-5.685v-4.075H86.025z M69.755,20.785v-3.27c0-0.536-0.435-0.97-0.97-0.97
		c-0.537,0-0.972,0.434-0.972,0.97v3.27c0,0.536,0.435,0.97,0.972,0.97C69.32,21.755,69.755,21.321,69.755,20.785 M72.845,22.092
		v-6.539c0-0.536-0.434-0.971-0.971-0.971c-0.536,0-0.971,0.435-0.971,0.971v6.539c0,0.536,0.435,0.97,0.971,0.97
		C72.411,23.062,72.845,22.628,72.845,22.092 M82.114,20.785v-3.27c0-0.536-0.435-0.97-0.971-0.97c-0.537,0-0.971,0.434-0.971,0.97
		v3.27c0,0.536,0.434,0.97,0.971,0.97C81.68,21.755,82.114,21.321,82.114,20.785 M79.023,22.092v-6.539
		c0-0.536-0.434-0.971-0.97-0.971c-0.537,0-0.971,0.435-0.971,0.971v6.539c0,0.536,0.434,0.97,0.971,0.97
		C78.59,23.062,79.023,22.628,79.023,22.092 M42.95,20.785v-3.27c0-0.536-0.434-0.97-0.97-0.97c-0.536,0-0.97,0.434-0.97,0.97v3.27
		c0,0.536,0.434,0.97,0.97,0.97C42.516,21.755,42.95,21.321,42.95,20.785 M46.04,22.092v-6.539c0-0.536-0.434-0.971-0.97-0.971
		s-0.97,0.435-0.97,0.971v6.539c0,0.536,0.434,0.97,0.97,0.97S46.04,22.628,46.04,22.092 M55.309,20.785v-3.27
		c0-0.536-0.434-0.97-0.97-0.97s-0.97,0.434-0.97,0.97v3.27c0,0.536,0.434,0.97,0.97,0.97S55.309,21.321,55.309,20.785
		 M51.249,23.062c-0.536,0-0.97-0.434-0.97-0.97v-6.539c0-0.536,0.434-0.971,0.97-0.971c0.536,0,0.97,0.435,0.97,0.971v6.539
		C52.219,22.628,51.785,23.062,51.249,23.062"/>
</g>
</svg>
