<?xml version="1.0" encoding="utf-8"?>
<!-- Generator: Adobe Illustrator 16.0.0, SVG Export Plug-In . SVG Version: 6.00 Build 0)  -->
<!DOCTYPE svg PUBLIC "-//W3C//DTD SVG 1.1//EN" "http://www.w3.org/Graphics/SVG/1.1/DTD/svg11.dtd">
<svg version="1.1" id="Ebene_1" xmlns="http://www.w3.org/2000/svg" xmlns:xlink="http://www.w3.org/1999/xlink" x="0px" y="0px"
	 width="113.387px" height="85.04px" viewBox="0 0 113.387 85.04" enable-background="new 0 0 113.387 85.04" xml:space="preserve">
<g>
	<path fill="#AB3911" d="M109.28,41.015c0-20.771-21.277-37.609-47.525-37.609c-26.249,0-47.526,16.838-47.526,37.609
		c0,6.699,2.222,12.982,6.101,18.43L4.106,81.634L31.425,69.97c8.229,5.404,18.799,8.656,30.33,8.656
		C88.001,78.626,109.28,61.787,109.28,41.015L109.28,41.015z"/>
	<path fill="#FFFFFF" d="M68.063,40.152c0.801-0.732,1.311-1.772,1.311-2.938c0-2.208-1.801-4.004-4.016-4.004
		c-0.041,0-0.207,0-0.459-0.001v-3.263c0-0.553-0.447-1-1-1s-1,0.447-1,1v3.26c-0.736-0.001-1.549-0.002-2.324-0.003v-3.257
		c0-0.553-0.447-1-1-1s-1,0.447-1,1v3.254c-0.711-0.001-1.182-0.002-1.182-0.002l-1.002-0.002v0.025h-1.13c-0.553,0-1,0.447-1,1
		s0.447,1,1,1h1.13v3.996v1.987v4.419h-1.13c-0.553,0-1,0.447-1,1s0.447,1,1,1h3.314v3c0,0.553,0.447,1,1,1s1-0.447,1-1v-3.02h2.324
		v3.02c0,0.553,0.447,1,1,1s1-0.447,1-1v-3.02h0.551c2.32,0,4.207-1.881,4.207-4.193C69.657,42.088,69.028,40.92,68.063,40.152
		L68.063,40.152z M58.391,35.222h0.379c0.037,0,0.068-0.017,0.104-0.021c2.24,0.003,6.254,0.009,6.484,0.009
		c1.111,0,2.016,0.899,2.016,2.004c0,1.104-0.904,2.002-2.016,2.002c-0.248,0-4.883-0.006-6.967-0.009V35.222L58.391,35.222z
		 M65.45,45.605h-7.059v-4.387h7.059c1.217,0,2.207,0.984,2.207,2.193S66.667,45.605,65.45,45.605L65.45,45.605z"/>
	<path fill="#FFFFFF" d="M83.216,56.273c0.406,0.941,1.344,1.602,2.434,1.602c1.465,0,2.654-1.188,2.654-2.652
		s-1.189-2.654-2.654-2.654c-1.129,0-2.088,0.711-2.471,1.705h-6.047l-8.676,7.852h-4.164c-0.268-0.656-0.789-1.182-1.443-1.451
		v-4.771c8.16-0.461,14.662-7.225,14.662-15.498c0-8.271-6.502-15.036-14.66-15.498l0.002-4.368c0.67-0.267,1.203-0.795,1.477-1.462
		h18.865c0.27,0.661,0.795,1.187,1.457,1.456l-0.004,17.087c-0.967,0.396-1.65,1.344-1.65,2.453c0,1.467,1.189,2.655,2.654,2.655
		s2.652-1.188,2.652-2.655c0-1.111-0.686-2.061-1.656-2.455l0.004-17.087c0.967-0.396,1.65-1.344,1.65-2.453
		c0-1.466-1.188-2.653-2.652-2.653c-1.111,0-2.061,0.684-2.455,1.652H64.329c-0.396-0.969-1.346-1.652-2.455-1.652
		c-1.467,0-2.654,1.188-2.654,2.653c0,1.103,0.674,2.047,1.633,2.447l-0.002,4.394c-7.626,0.546-13.743,6.608-14.365,14.213h-5.883
		c-0.262-0.687-0.795-1.236-1.474-1.513L39.13,20.53c0.969-0.396,1.651-1.343,1.651-2.453c0-1.466-1.188-2.653-2.652-2.653
		s-2.653,1.188-2.653,2.653c0,1.11,0.686,2.06,1.654,2.454l-0.003,17.088c-0.968,0.395-1.651,1.343-1.651,2.453
		c0,1.112,0.684,2.061,1.653,2.456v18.142c-0.969,0.395-1.653,1.344-1.653,2.453c0,1.465,1.188,2.654,2.653,2.654
		s2.652-1.189,2.652-2.654c0-1.109-0.684-2.059-1.652-2.453V48.441l6.206,6.787v5.432C44.35,61.046,43.65,62,43.65,63.123
		c0,1.465,1.188,2.654,2.652,2.654c1.465,0,2.653-1.189,2.653-2.654c0-1.098-0.668-2.041-1.62-2.443v-6.229l-8.121-8.879
		c-0.025-0.027-0.059-0.039-0.085-0.062v-2.981c0.64-0.262,1.154-0.765,1.43-1.397h5.899c0.366,7.857,6.583,14.201,14.39,14.76
		v4.775c-0.975,0.393-1.664,1.344-1.664,2.459c0,1.465,1.188,2.652,2.652,2.652c1.111,0,2.061-0.684,2.455-1.652h18.902
		c0.396,0.969,1.344,1.652,2.455,1.652c1.465,0,2.654-1.189,2.654-2.654s-1.189-2.652-2.654-2.652c-1.111,0-2.061,0.686-2.455,1.654
		H71.436l6.467-5.852H83.216L83.216,56.273z M48.424,40.404c0-7.468,6.075-13.543,13.543-13.543c7.467,0,13.543,6.075,13.543,13.543
		c0,7.469-6.076,13.543-13.543,13.543C54.499,53.947,48.424,47.873,48.424,40.404L48.424,40.404z"/>
</g>
</svg>
