<?xml version="1.0" encoding="utf-8"?>
<!-- Generator: Adobe Illustrator 16.0.0, SVG Export Plug-In . SVG Version: 6.00 Build 0)  -->
<!DOCTYPE svg PUBLIC "-//W3C//DTD SVG 1.1//EN" "http://www.w3.org/Graphics/SVG/1.1/DTD/svg11.dtd">
<svg version="1.1" id="Ebene_1" xmlns="http://www.w3.org/2000/svg" xmlns:xlink="http://www.w3.org/1999/xlink" x="0px" y="0px"
	 width="113.387px" height="85.04px" viewBox="0 0 113.387 85.04" enable-background="new 0 0 113.387 85.04" xml:space="preserve">
<g>
	<path fill="#AB3911" d="M109.28,41.015c0-20.771-21.277-37.609-47.525-37.609c-26.249,0-47.526,16.838-47.526,37.609
		c0,6.699,2.222,12.982,6.101,18.43L4.106,81.634L31.425,69.97c8.229,5.404,18.799,8.656,30.33,8.656
		C88.001,78.626,109.28,61.787,109.28,41.015L109.28,41.015z"/>
	<path fill="#FFFFFF" d="M43.322,54.367c2.052,0,3.722-1.67,3.722-3.721c0-0.475-0.098-0.922-0.26-1.34
		c1.789-0.27,3.17-1.803,3.17-3.666c0-0.498-0.103-0.973-0.281-1.408c1.799-0.26,3.191-1.798,3.191-3.669
		c0-2.053-1.669-3.723-3.721-3.723c-1.185,0-2.229,0.566-2.911,1.432c-0.503-0.639-1.205-1.109-2.013-1.315
		c0.047-1.139,0.021-3.903-0.09-4.814c-0.329-2.675-1.339-4.682-3.002-5.965c-0.358-0.276-0.874-0.211-1.151,0.147
		c-0.277,0.359-0.21,0.874,0.148,1.151c1.303,1.006,2.103,2.643,2.376,4.866c0.099,0.804,0.122,3.599,0.078,4.587
		c-0.872,0.182-1.632,0.665-2.167,1.343c-0.682-0.865-1.726-1.432-2.91-1.432c-2.052,0-3.721,1.67-3.721,3.723
		c0,1.871,1.392,3.409,3.191,3.669c-0.179,0.436-0.281,0.91-0.281,1.408c0,1.863,1.38,3.396,3.17,3.666
		c-0.162,0.418-0.26,0.865-0.26,1.34C39.601,52.697,41.27,54.367,43.322,54.367L43.322,54.367z M43.322,52.726
		c-1.147,0-2.081-0.934-2.081-2.08c0-1.148,0.934-2.082,2.081-2.082c1.147,0,2.081,0.934,2.081,2.082
		C45.403,51.792,44.469,52.726,43.322,52.726L43.322,52.726z M49.144,38.481c1.146,0,2.08,0.935,2.08,2.082s-0.934,2.082-2.08,2.082
		c-1.147,0-2.081-0.935-2.081-2.082S47.996,38.481,49.144,38.481L49.144,38.481z M46.233,43.56c1.147,0,2.081,0.934,2.081,2.08
		s-0.934,2.082-2.081,2.082c-1.146,0-2.08-0.936-2.08-2.082S45.086,43.56,46.233,43.56L46.233,43.56z M43.322,38.481
		c1.147,0,2.081,0.935,2.081,2.082s-0.934,2.082-2.081,2.082c-1.147,0-2.081-0.935-2.081-2.082S42.175,38.481,43.322,38.481
		L43.322,38.481z M37.501,42.645c-1.147,0-2.081-0.935-2.081-2.082s0.934-2.082,2.081-2.082c1.147,0,2.081,0.935,2.081,2.082
		S38.649,42.645,37.501,42.645L37.501,42.645z M38.331,45.64c0-1.146,0.934-2.08,2.081-2.08s2.081,0.934,2.081,2.08
		s-0.934,2.082-2.081,2.082S38.331,46.787,38.331,45.64L38.331,45.64z M44.485,30.312c0.337-0.882,1.423-0.882,1.831-0.882
		c0.095,0,0.191,0.002,0.289,0.006c-0.765-0.359-1.515-0.836-1.43-1.691c0.162-1.605,2.274-2.066,3.849-2.272
		c0.329-0.044,0.687-0.065,1.062-0.065c2.464,0,5.141,0.934,5.253,0.973l1.242,0.438l-0.94,0.922
		c-0.027,0.026-0.512,0.501-1.201,1.109c1.757,1.251,3.258,2.486,3.331,2.546l1.295,1.066l-1.637,0.368
		c-0.094,0.021-2.059,0.46-4.252,0.797c0.311,0.861,0.505,1.515,0.517,1.551l0.362,1.223l-1.264-0.177
		c-0.407-0.057-4.024-0.589-5.546-1.688C47.211,34.51,43.823,32.038,44.485,30.312L44.485,30.312z M46.148,31.075
		c0.32,0.56,1.267,1.558,2.059,2.13c0.701,0.507,2.266,0.913,3.491,1.162c-0.119-0.338-0.259-0.716-0.414-1.102l-0.394-0.98
		l1.048-0.139c1.219-0.16,2.465-0.382,3.424-0.566c-0.755-0.583-1.737-1.316-2.722-1.982l-0.906-0.614l0.843-0.697
		c0.312-0.259,0.61-0.518,0.873-0.751c-1.152-0.292-2.832-0.617-4.211-0.436c-1.504,0.197-2.084,0.492-2.302,0.667
		c0.219,0.124,0.554,0.271,0.781,0.369c0.871,0.381,2.064,0.902,1.805,1.991c-0.237,0.994-1.413,0.994-1.8,0.994
		c-0.232,0-0.484-0.013-0.738-0.025C46.688,31.08,46.358,31.066,46.148,31.075L46.148,31.075z M64.887,40.567
		c0-1.105-0.678-2.052-1.641-2.45l0.002-19.589c0.639-0.275,1.146-0.796,1.408-1.443h12.602c0.252,0.626,0.738,1.13,1.35,1.412
		l0.002,3.587c0,0.553,0.447,1,1,1l0,0c0.553-0.001,1-0.448,1-1.001l-0.002-3.502c1.023-0.367,1.76-1.337,1.76-2.488
		c0-1.466-1.188-2.652-2.652-2.652c-1.107,0-2.055,0.68-2.453,1.645H64.651c-0.396-0.965-1.346-1.645-2.453-1.645
		c-1.465,0-2.652,1.187-2.652,2.652c0,1.13,0.707,2.088,1.703,2.471l-0.002,19.546c-0.977,0.392-1.666,1.343-1.666,2.458
		s0.689,2.068,1.666,2.461l-0.002,19.69c-0.672,0.27-1.205,0.807-1.473,1.48l-14.067-0.004c-0.263-0.658-0.778-1.189-1.431-1.465
		l-0.003-4.68c0-0.551-0.448-0.998-1-0.998h0c-0.552,0-1,0.447-1,1l0.003,4.66c-0.984,0.387-1.683,1.342-1.683,2.463
		c0,1.467,1.188,2.654,2.653,2.654c1.104,0,2.049-0.676,2.449-1.635l14.092,0.002c0.4,0.959,1.344,1.633,2.447,1.633
		c1.465,0,2.654-1.188,2.654-2.654c0-1.107-0.68-2.053-1.643-2.451l0.002-19.704C64.208,42.62,64.887,41.673,64.887,40.567
		L64.887,40.567z M87.872,32.387c0,0.003,0,0.007,0,0.01c0,0.004,0,0.008,0,0.012c-0.012,4.182-3.271,7.632-7.422,8.049v11.138
		c0.016,0.004,0.031,0.002,0.045,0.008l5.246,2.068c0.377,0.148,0.596,0.545,0.52,0.945c-0.076,0.398-0.424,0.686-0.83,0.686H73.782
		c-0.406,0-0.754-0.287-0.83-0.686c-0.076-0.4,0.143-0.797,0.52-0.945l5.246-2.068c0.014-0.006,0.029-0.004,0.043-0.008V40.458
		c-4.139-0.416-7.391-3.85-7.42-8.018c0-0.014,0-0.027,0-0.04c-0.002-0.755,0.127-1.528,0.395-2.379l1.236-4.209
		c0.105-0.359,0.436-0.607,0.811-0.607H85.43c0.375,0,0.705,0.248,0.811,0.607l1.24,4.224
		C87.743,30.867,87.872,31.641,87.872,32.387L87.872,32.387z M85.815,30.358l-1.018-3.463H74.415l-1.018,3.463H85.815L85.815,30.358
		z"/>
</g>
</svg>
