<?xml version="1.0" encoding="utf-8"?>
<!-- Generator: Adobe Illustrator 16.0.0, SVG Export Plug-In . SVG Version: 6.00 Build 0)  -->
<!DOCTYPE svg PUBLIC "-//W3C//DTD SVG 1.1//EN" "http://www.w3.org/Graphics/SVG/1.1/DTD/svg11.dtd">
<svg version="1.1" id="Ebene_1" xmlns="http://www.w3.org/2000/svg" xmlns:xlink="http://www.w3.org/1999/xlink" x="0px" y="0px"
	 width="66.332px" height="61.229px" viewBox="0 0 66.332 61.229" enable-background="new 0 0 66.332 61.229" xml:space="preserve">
<g>
	<path fill="#508FB8" d="M60.943,31.659c0.395,0.969,1.344,1.653,2.455,1.653c1.465,0,2.651-1.188,2.651-2.651
		s-1.188-2.653-2.651-2.653c-1.111,0-2.06,0.685-2.455,1.652h-9.719v-3.156h5.842V17.5l4.776-2.507
		c0.438,0.316,0.974,0.512,1.556,0.512c1.465,0,2.651-1.188,2.651-2.653s-1.188-2.652-2.651-2.652c-1.465,0-2.652,1.188-2.652,2.652
		c0,0.149,0.021,0.293,0.045,0.437l-5.725,3.004v8.213h-3.842v-5.6c0-1.541-1.021-3.836-3.836-3.836H18.917
		c-1.542,0-3.835,1.021-3.835,3.836v5.527h-3.816V11.928H5.412c-0.376-1.009-1.339-1.729-2.478-1.729
		c-1.465,0-2.653,1.188-2.653,2.651c0,1.466,1.188,2.653,2.653,2.653c1.081,0,2.007-0.648,2.42-1.576h3.912v12.505h5.816v3.258
		c-0.051-0.008-0.096-0.029-0.149-0.029H5.388c-0.395-0.97-1.344-1.652-2.454-1.652c-1.465,0-2.653,1.188-2.653,2.653
		s1.188,2.651,2.653,2.651c1.111,0,2.06-0.686,2.455-1.653h9.544c0.053,0,0.099-0.021,0.149-0.029v3.188H9.266v9.002l-4.71,2.474
		c-0.45-0.353-1.008-0.568-1.622-0.568c-1.465,0-2.653,1.189-2.653,2.654s1.188,2.652,2.653,2.652s2.653-1.188,2.653-2.652
		c0-0.119-0.02-0.234-0.035-0.351l5.714-3v-8.211h3.816v5.601c0,1.541,1.021,3.834,3.835,3.834h28.472
		c1.543,0,3.836-1.021,3.836-3.834V36.89h3.842v12.504h5.883c0.398,0.961,1.344,1.638,2.449,1.638c1.465,0,2.651-1.188,2.651-2.652
		c0-1.467-1.188-2.654-2.651-2.654c-1.117,0-2.068,0.691-2.459,1.67h-3.873V34.89h-5.842V31.66L60.943,31.659L60.943,31.659z
		 M49.225,42.417c0,1.67-1.404,1.826-1.842,1.834H18.917c-1.674,0-1.828-1.41-1.835-1.834V18.906c0-1.674,1.411-1.827,1.835-1.836
		h28.472c1.674,0,1.827,1.411,1.836,1.836V42.417L49.225,42.417z"/>
	<path fill="#508FB8" d="M28.896,40.257l-4.797-8.539h-4.055c-0.552,0-1-0.447-1-1s0.448-1,1-1h5.226l3.165,5.635l4.723-14.046
		l4.529,12.511l3.896-4.1h4.528c0.554,0,1,0.447,1,1s-0.446,1-1,1h-3.672l-5.532,5.822l-3.68-10.166L28.896,40.257L28.896,40.257z"
		/>
	<path fill="#508FB8" d="M26.267,19.373c-1.022,0-1.861,0.668-2.184,1.579c-0.32-0.916-1.184-1.579-2.21-1.579
		c-1.298,0-2.35,1.053-2.35,2.351c0,0.501,0.242,1.045,0.427,1.345c0.755,1.226,4.12,4.019,4.12,4.019s3.365-2.793,4.121-4.019
		c0.185-0.3,0.426-0.844,0.426-1.345C28.617,20.426,27.565,19.373,26.267,19.373L26.267,19.373z"/>
</g>
</svg>
