<?xml version="1.0" encoding="utf-8"?>
<!-- Generator: Adobe Illustrator 16.0.0, SVG Export Plug-In . SVG Version: 6.00 Build 0)  -->
<!DOCTYPE svg PUBLIC "-//W3C//DTD SVG 1.1//EN" "http://www.w3.org/Graphics/SVG/1.1/DTD/svg11.dtd">
<svg version="1.1" id="Ebene_1" xmlns="http://www.w3.org/2000/svg" xmlns:xlink="http://www.w3.org/1999/xlink" x="0px" y="0px"
	 width="113.387px" height="85.04px" viewBox="0 0 113.387 85.04" enable-background="new 0 0 113.387 85.04" xml:space="preserve">
<g>
	<path fill="#AB3911" d="M109.28,41.015c0-20.771-21.277-37.609-47.525-37.609c-26.249,0-47.526,16.838-47.526,37.609
		c0,6.699,2.222,12.982,6.101,18.43L4.106,81.634L31.425,69.97c8.229,5.404,18.799,8.656,30.33,8.656
		C88.001,78.626,109.28,61.787,109.28,41.015L109.28,41.015z"/>
	<path fill="#FFFFFF" d="M89.387,42.532c0.395,0.97,1.342,1.653,2.453,1.653c1.465,0,2.652-1.187,2.652-2.652
		c0-1.465-1.188-2.653-2.652-2.653c-1.109,0-2.059,0.685-2.453,1.652h-9.721v-3.155h5.842v-9.004l4.777-2.508
		c0.438,0.318,0.973,0.512,1.555,0.512c1.465,0,2.652-1.188,2.652-2.653s-1.188-2.653-2.652-2.653s-2.652,1.188-2.652,2.653
		c0,0.149,0.021,0.293,0.045,0.436l-5.725,3.005v8.213h-3.842v-5.6c0-1.542-1.021-3.835-3.834-3.835H47.36
		c-1.542,0-3.835,1.021-3.835,3.835v5.528h-3.816V22.799h-5.854c-0.376-1.008-1.339-1.729-2.478-1.729
		c-1.465,0-2.653,1.188-2.653,2.652c0,1.466,1.188,2.653,2.653,2.653c1.081,0,2.007-0.648,2.42-1.576h3.912v12.506h5.816v3.257
		c-0.051-0.008-0.096-0.03-0.149-0.03h-9.545c-0.395-0.969-1.344-1.652-2.454-1.652c-1.465,0-2.653,1.188-2.653,2.653
		s1.188,2.652,2.653,2.652c1.111,0,2.06-0.684,2.455-1.653h9.544c0.053,0,0.099-0.022,0.149-0.03v3.188h-5.816v9.004l-4.71,2.471
		c-0.45-0.35-1.008-0.568-1.622-0.568c-1.465,0-2.653,1.189-2.653,2.654s1.188,2.652,2.653,2.652s2.653-1.188,2.653-2.652
		c0-0.119-0.02-0.232-0.035-0.348l5.714-3v-8.213h3.816v5.6c0,1.541,1.021,3.834,3.835,3.834h28.473
		c1.541,0,3.834-1.021,3.834-3.834v-5.527h3.842v12.504h5.883c0.4,0.961,1.346,1.637,2.449,1.637c1.465,0,2.652-1.188,2.652-2.652
		c0-1.467-1.188-2.654-2.652-2.654c-1.117,0-2.068,0.693-2.459,1.67h-3.873V45.761h-5.842v-3.229H89.387L89.387,42.532z
		 M77.667,53.289c0,1.67-1.404,1.826-1.84,1.834H47.36c-1.674,0-1.828-1.41-1.835-1.834V29.777c0-1.674,1.411-1.828,1.835-1.835
		h28.473c1.674,0,1.828,1.41,1.834,1.835V53.289L77.667,53.289z"/>
	<path fill="#FFFFFF" d="M57.339,51.13l-4.797-8.54h-4.055c-0.552,0-1-0.448-1-1.001c0-0.552,0.448-1,1-1h5.226l3.165,5.637
		L61.6,32.178l4.531,12.511l3.896-4.1h4.529c0.553,0,1,0.448,1,1c0,0.553-0.447,1.001-1,1.001h-3.672l-5.533,5.821l-3.682-10.166
		L57.339,51.13L57.339,51.13z"/>
	<path fill="#FFFFFF" d="M54.709,30.246c-1.022,0-1.861,0.668-2.184,1.579c-0.32-0.917-1.184-1.579-2.21-1.579
		c-1.298,0-2.35,1.052-2.35,2.351c0,0.501,0.242,1.044,0.427,1.344c0.755,1.225,4.12,4.019,4.12,4.019s3.365-2.794,4.121-4.019
		c0.186-0.3,0.426-0.843,0.426-1.344C57.059,31.297,56.008,30.246,54.709,30.246L54.709,30.246z"/>
</g>
</svg>
