<?xml version="1.0" encoding="utf-8"?>
<!-- Generator: Adobe Illustrator 16.0.0, SVG Export Plug-In . SVG Version: 6.00 Build 0)  -->
<!DOCTYPE svg PUBLIC "-//W3C//DTD SVG 1.1//EN" "http://www.w3.org/Graphics/SVG/1.1/DTD/svg11.dtd">
<svg version="1.1" id="Ebene_1" xmlns="http://www.w3.org/2000/svg" xmlns:xlink="http://www.w3.org/1999/xlink" x="0px" y="0px"
	 width="66.332px" height="61.229px" viewBox="0 0 66.332 61.229" enable-background="new 0 0 66.332 61.229" xml:space="preserve">
<g>
	<path fill="#AB3911" d="M39.339,30.166c0.801-0.732,1.311-1.772,1.311-2.938c0-2.208-1.801-4.004-4.016-4.004
		c-0.041,0-0.207,0-0.459-0.001v-3.263c0-0.553-0.447-1-1-1s-1,0.447-1,1v3.26c-0.736-0.001-1.548-0.002-2.323-0.003v-3.257
		c0-0.553-0.447-1-1-1c-0.554,0-1,0.447-1,1v3.254c-0.711-0.001-1.182-0.002-1.182-0.002l-1.002-0.002v0.025h-1.131
		c-0.553,0-1,0.447-1,1s0.447,1,1,1h1.131v3.996v1.987v4.418h-1.131c-0.553,0-1,0.449-1,1c0,0.555,0.447,1,1,1h3.314v3
		c0,0.555,0.446,1,1,1c0.553,0,1-0.445,1-1V37.62h2.323v3.018c0,0.555,0.447,1,1,1s1-0.445,1-1V37.62h0.551
		c2.32,0,4.207-1.883,4.207-4.195C40.933,32.103,40.304,30.935,39.339,30.166L39.339,30.166z M29.668,25.237h0.379
		c0.036,0,0.067-0.017,0.104-0.021c2.24,0.003,6.253,0.009,6.483,0.009c1.111,0,2.016,0.899,2.016,2.004
		c0,1.104-0.904,2.002-2.016,2.002c-0.248,0-4.883-0.006-6.966-0.009V25.237L29.668,25.237z M36.726,35.618h-7.058v-4.386h7.058
		c1.217,0,2.207,0.983,2.207,2.192S37.943,35.618,36.726,35.618L36.726,35.618z"/>
	<path fill="#AB3911" d="M54.492,46.288c0.406,0.941,1.344,1.6,2.434,1.6c1.465,0,2.654-1.188,2.654-2.65
		c0-1.467-1.189-2.654-2.654-2.654c-1.129,0-2.088,0.709-2.471,1.705h-6.047l-8.676,7.85h-4.164
		c-0.268-0.656-0.789-1.18-1.443-1.451v-4.77c8.16-0.463,14.662-7.227,14.662-15.499c0-8.271-6.502-15.036-14.66-15.499l0.002-4.368
		c0.67-0.267,1.203-0.795,1.477-1.461H54.47c0.27,0.66,0.795,1.187,1.457,1.455l-0.004,17.088c-0.967,0.396-1.65,1.344-1.65,2.453
		c0,1.466,1.189,2.655,2.654,2.655s2.652-1.189,2.652-2.655c0-1.111-0.686-2.061-1.656-2.455l0.004-17.088
		c0.967-0.396,1.65-1.343,1.65-2.453c0-1.466-1.188-2.653-2.652-2.653c-1.111,0-2.061,0.685-2.455,1.653H35.605
		c-0.396-0.969-1.346-1.653-2.455-1.653c-1.466,0-2.653,1.188-2.653,2.653c0,1.104,0.674,2.048,1.632,2.447l-0.001,4.394
		C24.5,15.477,18.383,21.54,17.762,29.145h-5.884c-0.262-0.687-0.795-1.236-1.475-1.513l0.003-17.088
		c0.969-0.396,1.651-1.344,1.651-2.454c0-1.466-1.188-2.653-2.652-2.653S6.752,6.624,6.752,8.09c0,1.111,0.686,2.06,1.654,2.455
		L8.404,27.633c-0.968,0.395-1.651,1.343-1.651,2.453c0,1.112,0.684,2.06,1.653,2.456v18.141c-0.97,0.396-1.653,1.344-1.653,2.455
		c0,1.465,1.188,2.654,2.653,2.654s2.652-1.189,2.652-2.654c0-1.111-0.684-2.059-1.652-2.455V38.454l6.205,6.787v5.432
		c-0.984,0.387-1.685,1.34-1.685,2.465c0,1.465,1.188,2.654,2.652,2.654s2.653-1.189,2.653-2.654c0-1.1-0.668-2.041-1.62-2.445
		v-6.227l-8.121-8.881c-0.025-0.027-0.059-0.039-0.085-0.062v-2.98c0.64-0.262,1.154-0.764,1.43-1.397h5.899
		c0.367,7.858,6.583,14.2,14.391,14.759l-0.001,4.775c-0.974,0.393-1.664,1.344-1.664,2.459c0,1.467,1.188,2.654,2.653,2.654
		c1.11,0,2.06-0.686,2.454-1.654H54.47c0.396,0.969,1.344,1.654,2.455,1.654c1.465,0,2.654-1.189,2.654-2.654
		c0-1.467-1.189-2.654-2.654-2.654c-1.111,0-2.061,0.686-2.455,1.654H42.712l6.467-5.85H54.492L54.492,46.288z M19.701,30.418
		c0-7.468,6.075-13.544,13.543-13.544c7.467,0,13.543,6.076,13.543,13.544S40.71,43.962,33.244,43.962
		C25.776,43.962,19.701,37.886,19.701,30.418L19.701,30.418z"/>
</g>
</svg>
