<?xml version="1.0" encoding="utf-8"?>
<!-- Generator: Adobe Illustrator 16.0.0, SVG Export Plug-In . SVG Version: 6.00 Build 0)  -->
<!DOCTYPE svg PUBLIC "-//W3C//DTD SVG 1.1//EN" "http://www.w3.org/Graphics/SVG/1.1/DTD/svg11.dtd">
<svg version="1.1" id="Ebene_1" xmlns="http://www.w3.org/2000/svg" xmlns:xlink="http://www.w3.org/1999/xlink" x="0px" y="0px"
	 width="113.386px" height="85.04px" viewBox="0 0 113.386 85.04" enable-background="new 0 0 113.386 85.04" xml:space="preserve">
<g>
	<defs>
		<rect id="SVGID_1_" width="113.386" height="85.04"/>
	</defs>
	<clipPath id="SVGID_2_">
		<use xlink:href="#SVGID_1_"  overflow="visible"/>
	</clipPath>
	<path clip-path="url(#SVGID_2_)" fill="#AB3911" d="M109.327,41.064c0-20.772-21.278-37.61-47.525-37.61
		c-26.248,0-47.525,16.838-47.525,37.61c0,6.698,2.222,12.981,6.1,18.429L4.153,81.682l27.319-11.664
		c8.23,5.404,18.799,8.656,30.33,8.656C88.049,78.674,109.327,61.834,109.327,41.064"/>
</g>
<g>
	<defs>
		<rect id="SVGID_3_" y="0" width="113.386" height="85.039"/>
	</defs>
	<clipPath id="SVGID_4_">
		<use xlink:href="#SVGID_3_"  overflow="visible"/>
	</clipPath>
	<path clip-path="url(#SVGID_4_)" fill="#FFFFFF" d="M40.494,26.597h1.997v-1.811c0-0.551-0.447-0.998-0.998-0.998
		c-0.552,0-0.999,0.447-0.999,0.998V26.597z M54.227,29.093c0-0.551-0.447-0.998-0.999-0.998h-23.47
		c-0.553,0-0.999,0.447-0.999,0.998c0,0.551,0.446,0.998,0.999,0.998h23.47C53.78,30.09,54.227,29.644,54.227,29.093 M69.552,37.247
		l0.275,0.555h8.881l0.278-0.545c0.584-1.147,1.668-1.86,2.828-1.86c1.801,0,3.266,1.628,3.266,3.631
		c0,2.001-1.465,3.629-3.266,3.629c-0.775,0-1.533-0.323-2.136-0.909l-0.291-0.283h-0.55c-2.206,0-4.603,1.759-7.379,3.797
		c-0.59,0.434-1.191,0.874-1.804,1.307l-0.188,0.133l-0.11,0.202c-1.632,2.974-4.484,4.749-7.633,4.749
		c-2.992,0-5.769-1.64-7.426-4.385l-0.119-0.195l-0.192-0.125c-1.162-0.754-2.254-1.549-3.309-2.317
		c-2.43-1.769-4.35-3.165-5.924-3.165h-0.835l-0.29,0.282c-0.428,0.416-1.144,0.91-2.135,0.91c-1.801,0-3.266-1.628-3.266-3.629
		c0-2.003,1.465-3.631,3.266-3.631c1.16,0,2.243,0.712,2.826,1.859l0.277,0.546h9.023l0.276-0.555
		c1.562-3.148,4.562-5.105,7.828-5.105C64.991,32.142,67.99,34.098,69.552,37.247 M61.724,30.146c-3.832,0-7.352,2.153-9.324,5.659
		h-6.616c-0.786-1.201-1.97-2.013-3.294-2.291v-1.926h-1.996v1.917c-2.424,0.501-4.263,2.785-4.263,5.522
		c0,3.102,2.361,5.627,5.263,5.627c1.16,0,2.288-0.421,3.212-1.193h0.047c0.646,0,1.789,0.692,3.058,1.571
		c-1.883,0.654-3.847,2.255-3.847,5.608v3.026c0,1.705,0.852,4.655,3.792,5.649c0.016,0.041,0.046,0.072,0.064,0.112
		c0.315,1.053,1.279,1.824,2.434,1.824c1.409,0,2.551-1.142,2.551-2.551s-1.142-2.551-2.551-2.551c-0.889,0-1.67,0.455-2.127,1.145
		c-2.055-0.915-2.163-3.303-2.166-3.629V50.64c0-3.846,3.589-3.988,3.993-3.992h0.109c0.153,0.11,1.624,1.178,2.648,1.85
		c2.036,3.23,5.388,5.15,9.013,5.15c3.757,0,7.287-2.133,9.269-5.58c0.558-0.397,1.107-0.802,1.647-1.197
		c0.104-0.074,0.203-0.148,0.305-0.223h0.126c3.846,0,3.988,3.589,3.993,3.993v3.025c0,2.075-1.044,3.067-2.069,3.545
		c-0.463-0.64-1.212-1.061-2.063-1.061c-1.408,0-2.551,1.142-2.551,2.551s1.143,2.551,2.551,2.551c1.178,0,2.158-0.802,2.452-1.886
		c0.028-0.065,0.071-0.12,0.091-0.188c1.8-0.706,3.585-2.311,3.585-5.512v-3.025c0-1.7-0.848-4.641-3.77-5.642
		c-0.002-0.001-0.006-0.002-0.006-0.002l-0.003-0.01c0,0,0.006-0.004,0.01-0.007c0.495-0.332,2.227-1.406,3.323-1.509
		c0.922,0.765,2.044,1.182,3.201,1.182c2.901,0,5.262-2.524,5.262-5.626c0-2.738-1.838-5.022-4.263-5.523v-1.917h-1.996v1.926
		c-1.323,0.278-2.509,1.09-3.294,2.291h-6.476C69.076,32.298,65.556,30.146,61.724,30.146 M80.816,26.597h1.997v-1.811
		c0-0.551-0.447-0.998-0.999-0.998s-0.998,0.447-0.998,0.998V26.597z M94.548,29.093c0-0.551-0.447-0.998-0.998-0.998H70.08
		c-0.553,0-0.999,0.447-0.999,0.998c0,0.551,0.446,0.998,0.999,0.998h23.47C94.101,30.09,94.548,29.644,94.548,29.093"/>
</g>
</svg>
