<?xml version="1.0" encoding="utf-8"?>
<!-- Generator: Adobe Illustrator 16.0.0, SVG Export Plug-In . SVG Version: 6.00 Build 0)  -->
<!DOCTYPE svg PUBLIC "-//W3C//DTD SVG 1.1//EN" "http://www.w3.org/Graphics/SVG/1.1/DTD/svg11.dtd">
<svg version="1.1" id="Ebene_1" xmlns="http://www.w3.org/2000/svg" xmlns:xlink="http://www.w3.org/1999/xlink" x="0px" y="0px"
	 width="66.331px" height="61.229px" viewBox="0 0 66.331 61.229" enable-background="new 0 0 66.331 61.229" xml:space="preserve">
<g>
	<defs>
		<rect id="SVGID_1_" y="0" width="66.331" height="61.228"/>
	</defs>
	<clipPath id="SVGID_2_">
		<use xlink:href="#SVGID_1_"  overflow="visible"/>
	</clipPath>
	<path clip-path="url(#SVGID_2_)" fill="#508FB8" d="M34.079,40.616c-8.234,0-15.319-7.339-17.263-9.545
		c1.365-1.549,5.269-5.62,10.32-7.912c-1.609,1.681-2.604,3.956-2.604,6.468c0,5.169,4.19,9.358,9.359,9.358
		s9.358-4.189,9.358-9.358c0-2.657-1.112-5.051-2.89-6.754c5.371,2.222,9.559,6.582,10.982,8.198
		C49.398,33.277,42.313,40.616,34.079,40.616 M33.891,21.893c4.271,0,7.733,3.462,7.733,7.734c0,4.271-3.463,7.732-7.733,7.732
		s-7.733-3.462-7.733-7.732C26.158,25.355,29.62,21.893,33.891,21.893 M52.505,51.031v-7.338l-5.538-5.89
		c3.84-2.82,6.285-5.877,6.472-6.114l0.488-0.619l-0.488-0.619c-0.183-0.231-2.53-3.162-6.228-5.929l5.285-4.771v-9.549
		c0.938-0.41,1.596-1.343,1.596-2.43c0-1.463-1.189-2.653-2.653-2.653c-1.463,0-2.652,1.19-2.652,2.653
		c0,1.13,0.713,2.09,1.71,2.471v8.621l-4.964,4.478c-3.188-2.084-7.137-3.816-11.453-3.816c-0.903,0-1.787,0.081-2.654,0.22v-7.002
		l1.488-2.345c0.085,0.008,0.166,0.026,0.253,0.026c1.462,0,2.653-1.19,2.653-2.653S34.628,5.12,33.166,5.12
		c-1.463,0-2.654,1.19-2.654,2.653c0,0.646,0.242,1.231,0.627,1.691l-1.714,2.7v8.017c-3.46,0.955-6.534,2.823-8.965,4.711v-8.954
		h-4.568v-5.712c0.968-0.395,1.653-1.344,1.653-2.453c0-1.463-1.19-2.653-2.653-2.653c-1.463,0-2.653,1.19-2.653,2.653
		c0,1.109,0.685,2.058,1.653,2.454v7.711h4.568v8.628c-2.238,2.009-3.602,3.712-3.74,3.886l-0.488,0.619l0.488,0.619
		c0.197,0.249,2.915,3.627,7.118,6.564l-7.946,8.053v4.696c-0.968,0.395-1.653,1.344-1.653,2.453c0,1.463,1.19,2.652,2.653,2.652
		c1.463,0,2.653-1.189,2.653-2.652c0-1.109-0.685-2.059-1.653-2.453v-3.875l7.656-7.76c2.518,1.519,5.441,2.766,8.618,3.135v8.5
		c-0.969,0.395-1.654,1.344-1.654,2.453c0,1.463,1.191,2.652,2.654,2.652c1.462,0,2.653-1.189,2.653-2.652
		c0-1.109-0.687-2.059-1.653-2.453v-8.392c4.179-0.021,8.006-1.659,11.132-3.663l5.207,5.538v6.494
		c-1.002,0.38-1.719,1.343-1.719,2.476c0,1.463,1.189,2.652,2.652,2.652c1.464,0,2.653-1.189,2.653-2.652
		C54.092,52.373,53.438,51.441,52.505,51.031"/>
	<path clip-path="url(#SVGID_2_)" fill="#508FB8" d="M33.891,34.193c2.522,0,4.567-2.045,4.567-4.566
		c0-2.523-2.045-4.567-4.567-4.567c-2.522,0-4.567,2.044-4.567,4.567C29.324,32.148,31.369,34.193,33.891,34.193"/>
</g>
</svg>
