<?xml version="1.0" encoding="utf-8"?>
<!-- Generator: Adobe Illustrator 16.0.0, SVG Export Plug-In . SVG Version: 6.00 Build 0)  -->
<!DOCTYPE svg PUBLIC "-//W3C//DTD SVG 1.1//EN" "http://www.w3.org/Graphics/SVG/1.1/DTD/svg11.dtd">
<svg version="1.1" id="Ebene_1" xmlns="http://www.w3.org/2000/svg" xmlns:xlink="http://www.w3.org/1999/xlink" x="0px" y="0px"
	 width="113.386px" height="85.04px" viewBox="0 0 113.386 85.04" enable-background="new 0 0 113.386 85.04" xml:space="preserve">
<g>
	<defs>
		<rect id="SVGID_1_" width="113.386" height="85.04"/>
	</defs>
	<clipPath id="SVGID_2_">
		<use xlink:href="#SVGID_1_"  overflow="visible"/>
	</clipPath>
	<path clip-path="url(#SVGID_2_)" fill="#AB3911" d="M109.327,41.064c0-20.772-21.278-37.61-47.525-37.61
		c-26.248,0-47.525,16.838-47.525,37.61c0,6.698,2.222,12.981,6.1,18.429L4.153,81.682l27.319-11.664
		c8.23,5.404,18.799,8.656,30.33,8.656C88.049,78.674,109.327,61.834,109.327,41.064"/>
</g>
<g>
	<defs>
		<rect id="SVGID_3_" y="0" width="113.386" height="85.039"/>
	</defs>
	<clipPath id="SVGID_4_">
		<use xlink:href="#SVGID_3_"  overflow="visible"/>
	</clipPath>
	<path clip-path="url(#SVGID_4_)" fill="#FFFFFF" d="M78.369,44.646c-0.105-0.045-0.202-0.104-0.314-0.138
		c-1.161-0.341-2.417-0.044-3.626,0.856c-0.32,0.238-0.385,0.689-0.147,1.009c0.237,0.318,0.687,0.384,1.009,0.147
		c0.58-0.434,1.467-0.894,2.358-0.63c0.187,0.055,0.342,0.146,0.479,0.258c-0.132,0.548-0.301,1.088-0.527,1.613
		c-0.076,0.174-0.168,0.348-0.261,0.521c-0.26,0.488-0.554,1.045-0.618,1.716c-0.057,0.622-0.162,1.156-0.322,1.633
		c-0.345,1.033-0.891,1.976-1.569,2.782l0.04-0.1c0.055-0.179,0.127-0.353,0.197-0.528c0.324-0.793,0.766-1.879-0.129-3.276
		c-0.766-1.198-1.889-1.71-3.205-1.496c0.052-0.464,0.056-0.92,0.007-1.354c-0.239-2.164-1.021-2.905-2.381-3.518
		c-1.555-0.701-3.225-0.419-4.582,0.768c-0.536,0.471-0.926,0.999-1.27,1.467c-0.564,0.765-0.782,0.992-1.037,0.933
		c-0.009-0.002-0.017,0-0.026-0.002V33.153c0.738-0.171,1.514,0.038,2.047,0.579c0.633,0.643,1.264,1.925,0.686,2.761
		c-0.45,0.652-1.479,2.296-1.294,3.482c0.122,0.791,0.565,1.468,1.216,1.859c0.246,0.148,0.579,0.275,0.993,0.275
		c0.374,0,0.815-0.104,1.319-0.39c0.347-0.197,0.468-0.637,0.271-0.983c-0.197-0.345-0.636-0.469-0.982-0.271
		c-0.369,0.21-0.657,0.254-0.86,0.133c-0.282-0.169-0.477-0.477-0.533-0.845c-0.045-0.289,0.201-1.206,1.055-2.441
		c0.689-0.996,0.581-2.242,0.062-3.31c0.838,0.025,1.801-0.12,2.579-0.427c0.811-0.32,1.354-0.793,1.619-1.406l0.037-0.11
		c0.19-0.762,0.092-1.585-0.27-2.258c-0.448-0.83-1.106-1.242-1.688-1.605l-0.091-0.047c-0.729-0.324-1.279-1.002-1.337-1.648
		c-0.039-0.442,0.162-0.815,0.561-1.085c0.022-0.014,0.047-0.02,0.071-0.033c0.023,0.021,0.053,0.038,0.074,0.06
		c0.199,0.192,0.447,0.289,0.745,0.284l0.106-0.003c0.803,0,1.755,0.398,2.426,1.014c0.575,0.529,0.961,1.266,1.291,2.465
		c0.077,0.282,0.273,0.516,0.538,0.64c0.865,0.408,1.71,1.265,2.309,2.309c-0.093,0.256-0.207,0.461-0.292,0.592
		c-0.461,0.718-1.07,1.095-1.485,1.061c-1.752-0.087-3.145,0.695-3.868,2.128c-1.004,1.469-0.974,4.054,0.032,5.396
		c0.776,1.35,2.115,2.052,3.983,2.087h0.013c0.393,0,0.714-0.314,0.722-0.707c0.007-0.398-0.311-0.726-0.707-0.734
		c-1.363-0.026-2.241-0.459-2.81-1.435c-0.681-0.917-0.694-2.881-0.024-3.821l0.061-0.102c0.586-1.203,1.694-1.405,2.534-1.373
		c0.856,0.043,1.834-0.503,2.532-1.401c0.246,0.947,0.299,1.968,0.153,3.141c-0.035,0.281,0.051,0.562,0.234,0.776
		c0.109,0.127,0.209,0.268,0.311,0.407c-0.686,0.46-1.541,0.62-2.479,0.188c-0.36-0.165-0.79-0.009-0.956,0.354
		c-0.167,0.361-0.009,0.789,0.353,0.955c0.571,0.264,1.155,0.391,1.726,0.391c0.738,0,1.446-0.231,2.082-0.637
		c0.591,1.286,0.914,2.842,0.901,4.505C78.408,44.166,78.388,44.406,78.369,44.646 M71.851,56.632
		c-0.073,0.029-0.144,0.054-0.213,0.078c-0.318,0.111-0.752,0.265-1.125,0.68c-0.188,0.208-0.412,0.446-0.653,0.636
		c-0.476,0.37-0.909,0.629-1.364,0.812c-0.852,0.344-1.823,0.503-3.141,0.514c-1.962-0.283-2.625-2.41-2.596-4.161
		c0.004-0.225,0.01-0.449,0.025-0.643c0.011-0.088,0.065-0.396,0.085-0.497c0.054-0.221,0.03-0.456-0.067-0.664
		c-0.021-0.054-0.045-0.11-0.09-0.192c-0.002-0.004-0.101-0.168-0.103-0.173c-0.001-0.002-0.003-0.004-0.004-0.006
		c0.826-0.019,1.706-0.44,2.354-0.841c1.329-0.822,2.89-2.326,3.176-3.688c0.082-0.39-0.168-0.771-0.557-0.854
		c-0.384-0.082-0.771,0.167-0.854,0.558c-0.162,0.771-1.271,1.983-2.523,2.758c-0.863,0.535-1.463,0.663-1.758,0.617v-2.818
		c1.036,0.071,1.667-0.763,2.224-1.519c0.313-0.426,0.641-0.868,1.06-1.235c1.253-1.095,2.443-0.807,3.041-0.537
		c0.883,0.396,1.354,0.684,1.54,2.361c0.194,1.755-0.715,4.06-2.028,5.138c-0.257,0.21-0.538,0.403-0.817,0.595
		c-0.87,0.6-1.857,1.277-2.05,2.427c-0.142,0.833,0.169,1.751,0.946,2.809c0.142,0.192,0.36,0.294,0.581,0.294
		c0.148,0,0.299-0.046,0.427-0.14c0.321-0.236,0.39-0.688,0.153-1.008c-0.526-0.716-0.758-1.293-0.687-1.716
		c0.092-0.547,0.75-1,1.444-1.479c0.314-0.215,0.63-0.434,0.915-0.669c0.978-0.801,1.765-2.093,2.202-3.47
		c1.348-0.534,1.974,0.128,2.33,0.687c0.492,0.769,0.299,1.241,0.007,1.957c-0.083,0.205-0.166,0.41-0.234,0.63
		c-0.164,0.353-0.02,0.773,0.331,0.949c0.22,0.109,0.463,0.084,0.663-0.025C73.734,55.593,72.839,56.229,71.851,56.632
		 M62.444,30.061c0.079-0.083,0.148-0.175,0.196-0.284c0.064-0.149,0.146-0.292,0.231-0.435c0.117-0.195,0.164-0.425,0.133-0.651
		c-0.086-0.63-0.25-2.758,1.277-3.675c0.608-0.364,1.431-0.448,2.193-0.301c-0.475,0.534-0.7,1.192-0.636,1.912
		c0.1,1.148,0.958,2.274,2.14,2.818c0.546,0.343,0.899,0.591,1.141,1.04c0.179,0.332,0.235,0.772,0.154,1.163
		c-0.149,0.282-0.514,0.474-0.801,0.587c-1.108,0.438-2.75,0.389-3.313,0.142c-0.023-0.01-0.047-0.019-0.071-0.027
		c-0.758-0.558-1.706-0.777-2.645-0.648V30.061z M61.004,31.699c-0.934-0.126-1.878,0.093-2.635,0.65
		c-0.025,0.008-0.05,0.017-0.074,0.027c-0.563,0.248-2.204,0.296-3.314-0.142c-0.287-0.113-0.651-0.305-0.801-0.587
		c-0.083-0.396-0.026-0.826,0.156-1.164c0.241-0.448,0.593-0.696,1.141-1.039c1.181-0.544,2.039-1.67,2.14-2.818
		c0.063-0.717-0.16-1.371-0.645-1.912c0.772-0.159,1.599-0.088,2.158,0.278c1.457,0.954,1.45,2.727,1.315,3.699
		c-0.03,0.224,0.016,0.453,0.132,0.648c0.085,0.141,0.164,0.285,0.229,0.435c0.048,0.11,0.118,0.204,0.198,0.288V31.699z
		 M61.004,47.309c-0.006,0.001-0.012,0-0.02,0.001c-0.256,0.062-0.474-0.169-1.036-0.934c-0.344-0.467-0.733-0.995-1.271-1.466
		c-1.357-1.187-3.028-1.465-4.582-0.768c-1.359,0.612-2.141,1.354-2.381,3.517c-0.047,0.435-0.044,0.891,0.006,1.354
		c-1.304-0.214-2.437,0.297-3.205,1.497c-0.893,1.396-0.452,2.482-0.129,3.275c0.072,0.176,0.144,0.35,0.198,0.524
		c0.01,0.033,0.038,0.104,0.061,0.155c-0.71-0.824-1.268-1.784-1.59-2.817c-0.196-0.624-0.309-1.222-0.337-1.778
		c-0.026-0.489-0.243-0.864-0.402-1.137c-0.036-0.063-0.072-0.124-0.104-0.189c-0.144-0.288-0.279-0.579-0.402-0.874
		c-0.21-0.509-0.366-1.014-0.491-1.515c0.14-0.114,0.297-0.209,0.486-0.265c0.9-0.263,1.78,0.197,2.36,0.629
		c0.318,0.238,0.77,0.173,1.008-0.146s0.172-0.771-0.147-1.008c-1.21-0.902-2.463-1.198-3.627-0.857
		c-0.118,0.034-0.218,0.096-0.329,0.145c-0.018-0.24-0.034-0.479-0.032-0.716c0.012-1.095,0.167-2.889,0.903-4.521
		c0.637,0.408,1.346,0.64,2.086,0.64c0.57,0,1.154-0.127,1.726-0.391c0.362-0.166,0.519-0.595,0.353-0.956
		c-0.168-0.362-0.597-0.519-0.956-0.353c-0.939,0.435-1.794,0.274-2.477-0.186c0.1-0.137,0.191-0.28,0.304-0.411
		c0.183-0.212,0.269-0.492,0.236-0.771c-0.144-1.218-0.093-2.243,0.145-3.158c0.697,0.908,1.674,1.467,2.545,1.415
		c0.842-0.031,1.946,0.17,2.533,1.373l0.06,0.101c0.669,0.941,0.656,2.906-0.072,3.892c-0.521,0.906-1.399,1.339-2.762,1.365
		c-0.398,0.008-0.715,0.336-0.707,0.734c0.007,0.393,0.328,0.707,0.72,0.707h0.013c1.868-0.035,3.208-0.737,3.938-2.016
		c1.05-1.411,1.082-3.998,0.079-5.467c-0.723-1.433-2.124-2.212-3.866-2.128c-0.407,0.031-1.026-0.343-1.489-1.061
		c-0.082-0.128-0.192-0.325-0.283-0.571c0.627-1.082,1.433-1.922,2.295-2.328c0.265-0.125,0.462-0.36,0.539-0.642
		c0.236-0.87,0.571-1.84,1.266-2.441c0.748-0.65,1.666-1.038,2.454-1.038l0.107,0.003c0.276,0.007,0.543-0.09,0.74-0.283
		c0.025-0.024,0.057-0.043,0.084-0.065c0.011,0.006,0.022,0.008,0.032,0.015c0.435,0.292,0.635,0.664,0.596,1.107
		c-0.057,0.646-0.607,1.324-1.338,1.648l-0.09,0.047c-0.581,0.364-1.241,0.776-1.686,1.604c-0.362,0.672-0.461,1.495-0.271,2.258
		l0.038,0.111c0.263,0.612,0.808,1.085,1.618,1.406c0.779,0.307,1.738,0.438,2.581,0.427c-0.521,1.068-0.627,2.314,0.062,3.31
		c0.854,1.235,1.1,2.153,1.055,2.441c-0.057,0.368-0.252,0.676-0.532,0.845c-0.202,0.121-0.491,0.075-0.86-0.133
		c-0.345-0.196-0.785-0.075-0.982,0.271c-0.197,0.346-0.075,0.786,0.27,0.983c1.064,0.603,1.845,0.396,2.312,0.115
		c0.649-0.39,1.093-1.067,1.217-1.859c0.185-1.185-0.844-2.83-1.295-3.482c-0.577-0.836,0.055-2.118,0.686-2.76
		c0.533-0.54,1.304-0.749,2.04-0.581V47.309z M61.004,51.567c-0.293,0.043-0.894-0.088-1.75-0.617
		c-1.252-0.774-2.361-1.986-2.523-2.758c-0.083-0.39-0.462-0.641-0.854-0.558c-0.389,0.082-0.639,0.464-0.557,0.854
		c0.286,1.361,1.848,2.866,3.177,3.688c0.647,0.4,1.524,0.82,2.351,0.839c-0.013,0.023-0.027,0.045-0.038,0.068
		c-0.022,0.05-0.049,0.097-0.077,0.142c-0.118,0.191-0.17,0.417-0.145,0.642c0.136,1.189,0.351,5.079-2.497,5.487
		c-1.378-0.012-2.373-0.182-3.218-0.549c-0.528-0.229-0.988-0.516-1.365-0.847c-0.279-0.247-0.487-0.46-0.657-0.671
		c-0.31-0.382-0.762-0.511-1.092-0.606c-0.059-0.017-0.116-0.031-0.162-0.05c-0.994-0.404-1.902-1.049-2.661-1.842
		c0.211,0.134,0.478,0.172,0.711,0.051c0.353-0.184,0.5-0.597,0.315-0.949c-0.066-0.218-0.152-0.432-0.24-0.646
		c-0.291-0.715-0.483-1.188,0.008-1.956c0.356-0.56,0.981-1.223,2.33-0.688c0.438,1.377,1.225,2.668,2.201,3.47
		c0.287,0.235,0.603,0.454,0.916,0.669c0.696,0.479,1.353,0.932,1.445,1.479c0.071,0.423-0.16,1-0.686,1.716
		c-0.236,0.32-0.168,0.771,0.152,1.008c0.322,0.235,0.772,0.169,1.008-0.154c0.778-1.057,1.087-1.975,0.947-2.809
		c-0.193-1.148-1.18-1.827-2.05-2.426c-0.279-0.192-0.561-0.386-0.817-0.596c-1.314-1.078-2.223-3.383-2.028-5.138
		c0.186-1.678,0.655-1.965,1.54-2.361c0.599-0.271,1.789-0.557,3.041,0.537c0.419,0.367,0.744,0.809,1.06,1.235
		c0.555,0.755,1.183,1.589,2.216,1.521V51.567z M86.917,43.087c1.407,0,2.552-1.145,2.552-2.552c0-1.406-1.145-2.551-2.552-2.551
		c-1.052,0-1.956,0.641-2.347,1.551h-4.643c-0.074,0-0.14,0.027-0.209,0.042c-0.358-1.039-0.84-1.985-1.448-2.777
		c0.163-1.792-0.075-3.375-0.721-4.827c-0.713-1.604-1.887-2.963-3.196-3.721c-0.299-0.974-0.783-2.104-1.743-2.986
		c-0.07-0.066-0.156-0.117-0.231-0.179c0.068-0.036,0.138-0.069,0.197-0.124l4.235-3.937h7.727c0.365,0.962,1.29,1.651,2.379,1.651
		c1.407,0,2.552-1.145,2.552-2.551c0-1.407-1.145-2.552-2.552-2.552c-1.089,0-2.015,0.69-2.379,1.652h-8.435l-5.298,4.917
		c-0.573-0.232-1.168-0.382-1.743-0.413c-1.555-1.256-4.092-1.459-5.809-0.43c-0.631,0.379-1.14,0.901-1.521,1.529
		c-0.003,0-0.006-0.002-0.009-0.002c-0.01,0-0.019,0.006-0.029,0.006c-0.369-0.602-0.86-1.116-1.471-1.515
		c-1.632-1.068-4.253-0.851-5.832,0.412c-0.088,0.004-0.177,0.03-0.266,0.04l-4.268-4.707H38.843
		c-0.404-0.876-1.285-1.489-2.311-1.489c-1.407,0-2.551,1.145-2.551,2.552c0,1.406,1.144,2.551,2.551,2.551
		c1.075,0,1.992-0.671,2.367-1.614h10.073l3.064,3.388c-0.41,0.225-0.811,0.481-1.178,0.8c-0.967,0.836-1.458,1.994-1.764,3.003
		c-1.718,0.987-2.725,2.716-3.188,3.705c-0.649,1.388-0.886,2.974-0.722,4.836c-1.149,1.493-1.863,3.524-2.075,5.841
		c-0.063-0.013-0.121-0.038-0.187-0.038h-0.869l-2.987-1.896c0.004-0.056,0.017-0.11,0.017-0.167c0-1.406-1.144-2.551-2.551-2.551
		c-1.407,0-2.551,1.145-2.551,2.551c0,1.407,1.144,2.552,2.551,2.552c0.617,0,1.177-0.229,1.619-0.597l3.321,2.108h1.45
		c0.052,0,0.097-0.021,0.146-0.029c0.068,1.272,0.359,2.568,0.896,3.867c0.14,0.338,0.295,0.673,0.458,1
		c0.05,0.1,0.107,0.199,0.165,0.299c0.05,0.087,0.125,0.217,0.135,0.239c0.036,0.723,0.179,1.487,0.425,2.272
		c0.214,0.686,0.51,1.347,0.873,1.972l-0.028,5.728h-7.114c-0.389-0.911-1.294-1.552-2.346-1.552c-1.407,0-2.551,1.145-2.551,2.551
		c0,1.407,1.144,2.552,2.551,2.552c1.052,0,1.955-0.639,2.345-1.551h9.115v-5.29c0.845,0.772,1.809,1.403,2.849,1.827
		c0.1,0.041,0.228,0.08,0.366,0.119c0.059,0.018,0.122,0.032,0.18,0.053c0.219,0.26,0.475,0.517,0.797,0.802
		c0.536,0.472,1.172,0.869,1.892,1.182c1.12,0.486,2.377,0.707,4.073,0.715h0.005c0.041,0,0.082-0.003,0.123-0.008
		c1.533-0.189,2.71-0.987,3.457-2.261c0.718,1.186,1.847,2.062,3.435,2.26c0.042,0.005,0.082,0.005,0.127,0.008
		c1.005-0.004,2.507-0.077,3.948-0.659c0.624-0.251,1.229-0.608,1.85-1.093c0.361-0.283,0.66-0.6,0.906-0.872
		c0.032-0.036,0.163-0.082,0.302-0.131c0.098-0.035,0.2-0.07,0.303-0.112c0.662-0.269,1.291-0.619,1.878-1.037
		c0.039,0.06,0.066,0.124,0.119,0.176l4.38,4.322h5.59c0.392,0.912,1.296,1.551,2.347,1.551c1.407,0,2.552-1.145,2.552-2.552
		c0-1.406-1.145-2.551-2.552-2.551c-1.052,0-1.956,0.641-2.347,1.552h-4.769L76.005,56.2c-0.017-0.017-0.038-0.021-0.056-0.036
		c1.035-1.094,1.854-2.424,2.348-3.896c0.209-0.625,0.346-1.307,0.416-2.081c0.026-0.271,0.205-0.609,0.394-0.967
		c0.118-0.222,0.234-0.443,0.331-0.666c0.633-1.473,0.96-3.025,0.973-4.614c0.007-0.825-0.066-1.628-0.197-2.404h4.357
		C84.961,42.446,85.865,43.087,86.917,43.087"/>
</g>
</svg>
