<?xml version="1.0" encoding="utf-8"?>
<!-- Generator: Adobe Illustrator 16.0.0, SVG Export Plug-In . SVG Version: 6.00 Build 0)  -->
<!DOCTYPE svg PUBLIC "-//W3C//DTD SVG 1.1//EN" "http://www.w3.org/Graphics/SVG/1.1/DTD/svg11.dtd">
<svg version="1.1" id="Ebene_1" xmlns="http://www.w3.org/2000/svg" xmlns:xlink="http://www.w3.org/1999/xlink" x="0px" y="0px"
	 width="66.332px" height="61.229px" viewBox="0 0 66.332 61.229" enable-background="new 0 0 66.332 61.229" xml:space="preserve">
<g>
	<path fill="#AB3911" d="M15.661,44.345c2.052,0,3.722-1.668,3.722-3.721c0-0.473-0.098-0.922-0.259-1.338
		c1.789-0.27,3.169-1.805,3.169-3.668c0-0.498-0.102-0.973-0.281-1.406c1.8-0.262,3.191-1.799,3.191-3.668
		c0-2.053-1.669-3.723-3.722-3.723c-1.184,0-2.228,0.567-2.911,1.432c-0.502-0.639-1.205-1.109-2.013-1.315
		c0.047-1.139,0.021-3.903-0.09-4.814c-0.329-2.675-1.339-4.682-3.001-5.965c-0.358-0.276-0.874-0.211-1.151,0.148
		c-0.277,0.359-0.21,0.874,0.148,1.151c1.303,1.006,2.103,2.643,2.376,4.867c0.099,0.804,0.123,3.599,0.078,4.587
		c-0.872,0.182-1.632,0.666-2.167,1.343c-0.681-0.865-1.726-1.432-2.91-1.432c-2.052,0-3.722,1.67-3.722,3.723
		c0,1.87,1.392,3.407,3.191,3.668c-0.179,0.434-0.281,0.908-0.281,1.406c0,1.863,1.38,3.398,3.17,3.668
		c-0.162,0.416-0.259,0.865-0.259,1.338C11.94,42.677,13.609,44.345,15.661,44.345L15.661,44.345z M15.661,42.704
		c-1.147,0-2.081-0.934-2.081-2.08s0.934-2.082,2.081-2.082c1.147,0,2.081,0.936,2.081,2.082S16.809,42.704,15.661,42.704
		L15.661,42.704z M21.482,28.462c1.147,0,2.081,0.935,2.081,2.082c0,1.147-0.934,2.081-2.081,2.081s-2.08-0.934-2.08-2.081
		C19.402,29.396,20.335,28.462,21.482,28.462L21.482,28.462z M18.572,33.538c1.147,0,2.081,0.934,2.081,2.08
		c0,1.148-0.934,2.082-2.081,2.082c-1.146,0-2.08-0.934-2.08-2.082C16.492,34.472,17.425,33.538,18.572,33.538L18.572,33.538z
		 M15.661,28.462c1.147,0,2.081,0.935,2.081,2.082c0,1.147-0.934,2.081-2.081,2.081c-1.147,0-2.081-0.934-2.081-2.081
		C13.581,29.396,14.514,28.462,15.661,28.462L15.661,28.462z M9.841,32.624c-1.147,0-2.081-0.934-2.081-2.081
		c0-1.147,0.934-2.082,2.081-2.082c1.147,0,2.08,0.935,2.08,2.082C11.921,31.691,10.988,32.624,9.841,32.624L9.841,32.624z
		 M10.67,35.618c0-1.146,0.934-2.08,2.081-2.08s2.081,0.934,2.081,2.08c0,1.148-0.934,2.082-2.081,2.082S10.67,36.767,10.67,35.618
		L10.67,35.618z M16.823,20.293c0.338-0.882,1.423-0.882,1.832-0.882c0.094,0,0.191,0.002,0.289,0.005
		c-0.765-0.359-1.515-0.836-1.43-1.691c0.162-1.606,2.274-2.066,3.849-2.273c0.329-0.043,0.687-0.065,1.062-0.065
		c2.464,0,5.141,0.934,5.253,0.973l1.242,0.438L27.98,17.72c-0.027,0.027-0.512,0.501-1.201,1.11
		c1.756,1.25,3.258,2.486,3.331,2.546l1.294,1.066l-1.636,0.368c-0.094,0.021-2.06,0.46-4.252,0.797
		c0.31,0.861,0.505,1.515,0.517,1.551l0.362,1.223l-1.264-0.177c-0.407-0.057-4.024-0.589-5.546-1.688
		C19.55,24.491,16.163,22.018,16.823,20.293L16.823,20.293z M18.487,21.055c0.319,0.559,1.266,1.558,2.058,2.13
		c0.702,0.507,2.267,0.913,3.492,1.162c-0.12-0.338-0.259-0.716-0.415-1.102l-0.393-0.981l1.047-0.138
		c1.219-0.161,2.465-0.382,3.424-0.567c-0.755-0.583-1.737-1.316-2.721-1.982l-0.907-0.614l0.843-0.698
		c0.312-0.259,0.61-0.517,0.873-0.751c-1.152-0.292-2.832-0.617-4.211-0.436c-1.504,0.198-2.084,0.493-2.302,0.667
		c0.219,0.124,0.554,0.271,0.781,0.37c0.871,0.38,2.064,0.902,1.805,1.991c-0.237,0.994-1.413,0.994-1.799,0.994
		c-0.232,0-0.485-0.012-0.738-0.025C19.027,21.06,18.697,21.046,18.487,21.055L18.487,21.055z M37.226,30.548
		c0-1.105-0.678-2.052-1.641-2.45l0.002-19.589c0.641-0.276,1.146-0.796,1.408-1.444h12.602c0.254,0.626,0.738,1.13,1.35,1.413
		l0.002,3.587c0,0.553,0.449,1,1,1c0,0,0,0,0.002,0c0.551,0,0.998-0.448,0.998-1l-0.002-3.502c1.023-0.367,1.76-1.337,1.76-2.488
		c0-1.466-1.188-2.652-2.652-2.652c-1.107,0-2.055,0.68-2.451,1.644H36.99c-0.396-0.964-1.344-1.644-2.451-1.644
		c-1.467,0-2.654,1.187-2.654,2.652c0,1.13,0.708,2.087,1.704,2.471L33.586,28.09c-0.976,0.392-1.666,1.343-1.666,2.458
		c0,1.114,0.69,2.067,1.666,2.459l-0.002,19.689c-0.672,0.271-1.205,0.807-1.473,1.48l-14.066-0.004
		c-0.263-0.658-0.778-1.189-1.431-1.463l-0.003-4.68c0-0.553-0.448-1-1-1H15.61c-0.552,0-1,0.449-0.999,1.002l0.002,4.658
		c-0.984,0.389-1.683,1.342-1.683,2.463c0,1.467,1.188,2.654,2.653,2.654c1.104,0,2.049-0.674,2.449-1.633l14.092,0.002
		c0.4,0.959,1.345,1.631,2.449,1.631c1.465,0,2.652-1.188,2.652-2.654c0-1.105-0.678-2.053-1.643-2.449l0.002-19.705
		C36.548,32.599,37.226,31.654,37.226,30.548L37.226,30.548z M60.212,22.368c0,0.003,0,0.006,0,0.01c0,0.004,0,0.008,0,0.012
		c-0.014,4.182-3.271,7.632-7.422,8.049v11.135c0.014,0.006,0.029,0.004,0.043,0.01l5.246,2.068
		c0.379,0.148,0.598,0.545,0.521,0.943s-0.424,0.688-0.83,0.688h-11.65c-0.406,0-0.754-0.289-0.83-0.688s0.143-0.795,0.521-0.943
		l5.246-2.068c0.014-0.006,0.029-0.004,0.043-0.008V30.438c-4.141-0.416-7.393-3.85-7.42-8.017
		c-0.002-0.015-0.002-0.028-0.002-0.041c0-0.754,0.129-1.528,0.395-2.379l1.236-4.209c0.105-0.359,0.436-0.607,0.811-0.607h11.65
		c0.375,0,0.705,0.248,0.811,0.607l1.238,4.224C60.082,20.847,60.212,21.622,60.212,22.368L60.212,22.368z M58.154,20.338
		l-1.016-3.462H46.753l-1.018,3.462H58.154L58.154,20.338z"/>
</g>
</svg>
