<?xml version="1.0" encoding="utf-8"?>
<!-- Generator: Adobe Illustrator 16.0.0, SVG Export Plug-In . SVG Version: 6.00 Build 0)  -->
<!DOCTYPE svg PUBLIC "-//W3C//DTD SVG 1.1//EN" "http://www.w3.org/Graphics/SVG/1.1/DTD/svg11.dtd">
<svg version="1.1" id="Ebene_1" xmlns="http://www.w3.org/2000/svg" xmlns:xlink="http://www.w3.org/1999/xlink" x="0px" y="0px"
	 width="113.386px" height="85.04px" viewBox="0 0 113.386 85.04" enable-background="new 0 0 113.386 85.04" xml:space="preserve">
<g>
	<defs>
		<rect id="SVGID_1_" width="113.386" height="85.04"/>
	</defs>
	<clipPath id="SVGID_2_">
		<use xlink:href="#SVGID_1_"  overflow="visible"/>
	</clipPath>
	<path clip-path="url(#SVGID_2_)" fill="#AB3911" d="M109.327,41.064c0-20.772-21.278-37.61-47.525-37.61
		c-26.248,0-47.525,16.838-47.525,37.61c0,6.698,2.222,12.981,6.1,18.429L4.153,81.682l27.319-11.664
		c8.23,5.404,18.799,8.656,30.33,8.656C88.049,78.674,109.327,61.834,109.327,41.064"/>
</g>
<g>
	<defs>
		<rect id="SVGID_3_" y="0" width="113.386" height="85.039"/>
	</defs>
	<clipPath id="SVGID_4_">
		<use xlink:href="#SVGID_3_"  overflow="visible"/>
	</clipPath>
	<path clip-path="url(#SVGID_4_)" fill="#FFFFFF" d="M62,50.395c-8.234,0-15.319-7.338-17.263-9.544
		c1.365-1.549,5.269-5.62,10.32-7.912c-1.609,1.681-2.604,3.956-2.604,6.468c0,5.169,4.19,9.359,9.359,9.359
		c5.169,0,9.357-4.189,9.357-9.359c0-2.657-1.111-5.051-2.89-6.754c5.372,2.222,9.559,6.582,10.983,8.198
		C77.32,43.057,70.235,50.395,62,50.395 M61.812,31.672c4.27,0,7.732,3.462,7.732,7.734c0,4.271-3.463,7.733-7.732,7.733
		c-4.271,0-7.733-3.462-7.733-7.733C54.079,35.134,57.541,31.672,61.812,31.672 M80.426,60.81v-7.337l-5.537-5.89
		c3.84-2.82,6.284-5.877,6.472-6.114l0.488-0.619l-0.488-0.619c-0.184-0.231-2.531-3.162-6.229-5.929l5.285-4.771v-9.549
		c0.938-0.41,1.597-1.343,1.597-2.43c0-1.463-1.19-2.653-2.653-2.653s-2.653,1.19-2.653,2.653c0,1.13,0.713,2.09,1.71,2.471v8.621
		l-4.964,4.478c-3.188-2.084-7.136-3.816-11.453-3.816c-0.902,0-1.787,0.081-2.653,0.22v-7.002l1.487-2.345
		c0.085,0.008,0.166,0.026,0.253,0.026c1.462,0,2.653-1.19,2.653-2.653s-1.191-2.653-2.653-2.653c-1.463,0-2.653,1.19-2.653,2.653
		c0,0.646,0.241,1.231,0.627,1.691l-1.714,2.7v8.017c-3.46,0.955-6.535,2.823-8.965,4.711v-8.954h-4.568v-5.712
		c0.968-0.395,1.653-1.344,1.653-2.453c0-1.463-1.19-2.653-2.653-2.653c-1.463,0-2.653,1.19-2.653,2.653
		c0,1.109,0.685,2.058,1.653,2.454v7.711h4.568v8.628c-2.238,2.009-3.602,3.712-3.74,3.886l-0.488,0.619l0.488,0.619
		c0.197,0.249,2.915,3.628,7.118,6.564l-7.946,8.053v4.696c-0.968,0.395-1.653,1.344-1.653,2.452c0,1.464,1.19,2.653,2.653,2.653
		c1.463,0,2.653-1.189,2.653-2.653c0-1.108-0.685-2.058-1.653-2.452v-3.875l7.656-7.761c2.518,1.52,5.441,2.767,8.618,3.136v8.5
		c-0.969,0.395-1.653,1.344-1.653,2.452c0,1.464,1.19,2.653,2.653,2.653c1.462,0,2.653-1.189,2.653-2.653
		c0-1.108-0.686-2.058-1.653-2.452v-8.392c4.18-0.021,8.006-1.66,11.132-3.664l5.207,5.539v6.494
		c-1.002,0.38-1.719,1.342-1.719,2.475c0,1.464,1.19,2.653,2.653,2.653s2.653-1.189,2.653-2.653
		C82.014,62.153,81.359,61.221,80.426,60.81"/>
	<path clip-path="url(#SVGID_4_)" fill="#FFFFFF" d="M61.812,43.973c2.522,0,4.567-2.045,4.567-4.566
		c0-2.523-2.045-4.567-4.567-4.567c-2.521,0-4.566,2.044-4.566,4.567C57.245,41.928,59.29,43.973,61.812,43.973"/>
</g>
</svg>
